<svg width="14" height="14" viewBox="0 0 14 14" fill="none" xmlns="http://www.w3.org/2000/svg">
<mask id="mask0_255_1600" style="mask-type:alpha" maskUnits="userSpaceOnUse" x="0" y="0" width="14" height="14">
<rect width="14" height="14" fill="#D9D9D9"/>
</mask>
<g mask="url(#mask0_255_1600)">
<path d="M4.08331 12.8333C3.76248 12.8333 3.48783 12.7191 3.25935 12.4906C3.03088 12.2621 2.91665 11.9875 2.91665 11.6667C2.91665 11.3458 3.03088 11.0712 3.25935 10.8427C3.48783 10.6142 3.76248 10.5 4.08331 10.5C4.40415 10.5 4.6788 10.6142 4.90727 10.8427C5.13574 11.0712 5.24998 11.3458 5.24998 11.6667C5.24998 11.9875 5.13574 12.2621 4.90727 12.4906C4.6788 12.7191 4.40415 12.8333 4.08331 12.8333ZM9.91665 12.8333C9.59581 12.8333 9.32116 12.7191 9.09269 12.4906C8.86422 12.2621 8.74998 11.9875 8.74998 11.6667C8.74998 11.3458 8.86422 11.0712 9.09269 10.8427C9.32116 10.6142 9.59581 10.5 9.91665 10.5C10.2375 10.5 10.5121 10.6142 10.7406 10.8427C10.9691 11.0712 11.0833 11.3458 11.0833 11.6667C11.0833 11.9875 10.9691 12.2621 10.7406 12.4906C10.5121 12.7191 10.2375 12.8333 9.91665 12.8333ZM3.58748 3.5L4.98748 6.41666H9.07081L10.675 3.5H3.58748ZM3.03331 2.33333H11.6375C11.8611 2.33333 12.0312 2.43298 12.1479 2.63229C12.2646 2.83159 12.2694 3.03333 12.1625 3.2375L10.0916 6.97083C9.9847 7.16527 9.8413 7.31597 9.66144 7.42291C9.48158 7.52986 9.2847 7.58333 9.07081 7.58333H4.72498L4.08331 8.75H11.0833V9.91666H4.08331C3.64581 9.91666 3.31526 9.72465 3.09165 9.34062C2.86804 8.95659 2.85831 8.575 3.06248 8.19583L3.84998 6.76666L1.74998 2.33333H0.583313V1.16666H2.47915L3.03331 2.33333Z" fill="white"/>
</g>
</svg>
