<svg width="24" height="24" viewBox="0 0 24 24" fill="none" xmlns="http://www.w3.org/2000/svg">
<mask id="mask0_255_1568" style="mask-type:alpha" maskUnits="userSpaceOnUse" x="0" y="0" width="24" height="24">
<rect width="24" height="24" fill="white"/>
</mask>
<g mask="url(#mask0_255_1568)">
<path d="M7.00008 22.0001C6.45008 22.0001 5.97924 21.8043 5.58758 21.4126C5.19591 21.021 5.00008 20.5501 5.00008 20.0001C5.00008 19.4501 5.19591 18.9793 5.58758 18.5876C5.97924 18.196 6.45008 18.0001 7.00008 18.0001C7.55008 18.0001 8.02091 18.196 8.41258 18.5876C8.80424 18.9793 9.00008 19.4501 9.00008 20.0001C9.00008 20.5501 8.80424 21.021 8.41258 21.4126C8.02091 21.8043 7.55008 22.0001 7.00008 22.0001ZM17.0001 22.0001C16.4501 22.0001 15.9792 21.8043 15.5876 21.4126C15.1959 21.021 15.0001 20.5501 15.0001 20.0001C15.0001 19.4501 15.1959 18.9793 15.5876 18.5876C15.9792 18.196 16.4501 18.0001 17.0001 18.0001C17.5501 18.0001 18.0209 18.196 18.4126 18.5876C18.8042 18.9793 19.0001 19.4501 19.0001 20.0001C19.0001 20.5501 18.8042 21.021 18.4126 21.4126C18.0209 21.8043 17.5501 22.0001 17.0001 22.0001ZM6.15008 6.00014L8.55008 11.0001H15.5501L18.3001 6.00014H6.15008ZM5.20008 4.00014H19.9501C20.3334 4.00014 20.6251 4.17097 20.8251 4.51264C21.0251 4.85431 21.0334 5.20014 20.8501 5.55014L17.3001 11.9501C17.1167 12.2835 16.8709 12.5418 16.5626 12.7251C16.2542 12.9085 15.9167 13.0001 15.5501 13.0001H8.10008L7.00008 15.0001H19.0001V17.0001H7.00008C6.25008 17.0001 5.68341 16.671 5.30008 16.0126C4.91674 15.3543 4.90008 14.7001 5.25008 14.0501L6.60008 11.6001L3.00008 4.00014H1.00008V2.00014H4.25008L5.20008 4.00014Z" fill="white"/>
</g>
</svg>
