<svg width="24" height="24" viewBox="0 0 24 24" fill="none" xmlns="http://www.w3.org/2000/svg">
<mask id="mask0_255_1565" style="mask-type:alpha" maskUnits="userSpaceOnUse" x="0" y="0" width="24" height="24">
<rect width="24" height="24" fill="white"/>
</mask>
<g mask="url(#mask0_255_1565)">
<path d="M10.5999 16.6001L17.6499 9.55014L16.2499 8.15014L10.5999 13.8001L7.74993 10.9501L6.34993 12.3501L10.5999 16.6001ZM11.9999 22.0001C10.6166 22.0001 9.3166 21.7376 8.09993 21.2126C6.88326 20.6876 5.82493 19.9751 4.92493 19.0751C4.02493 18.1751 3.31243 17.1168 2.78743 15.9001C2.26243 14.6835 1.99993 13.3835 1.99993 12.0001C1.99993 10.6168 2.26243 9.3168 2.78743 8.10014C3.31243 6.88347 4.02493 5.82514 4.92493 4.92514C5.82493 4.02514 6.88326 3.31264 8.09993 2.78764C9.3166 2.26264 10.6166 2.00014 11.9999 2.00014C13.3833 2.00014 14.6833 2.26264 15.8999 2.78764C17.1166 3.31264 18.1749 4.02514 19.0749 4.92514C19.9749 5.82514 20.6874 6.88347 21.2124 8.10014C21.7374 9.3168 21.9999 10.6168 21.9999 12.0001C21.9999 13.3835 21.7374 14.6835 21.2124 15.9001C20.6874 17.1168 19.9749 18.1751 19.0749 19.0751C18.1749 19.9751 17.1166 20.6876 15.8999 21.2126C14.6833 21.7376 13.3833 22.0001 11.9999 22.0001ZM11.9999 20.0001C14.2333 20.0001 16.1249 19.2251 17.6749 17.6751C19.2249 16.1251 19.9999 14.2335 19.9999 12.0001C19.9999 9.76681 19.2249 7.87514 17.6749 6.32514C16.1249 4.77514 14.2333 4.00014 11.9999 4.00014C9.7666 4.00014 7.87493 4.77514 6.32493 6.32514C4.77493 7.87514 3.99993 9.76681 3.99993 12.0001C3.99993 14.2335 4.77493 16.1251 6.32493 17.6751C7.87493 19.2251 9.7666 20.0001 11.9999 20.0001Z" fill="white"/>
</g>
</svg>
