<svg width="55" height="8" viewBox="0 0 55 8" fill="none" xmlns="http://www.w3.org/2000/svg">
<g clip-path="url(#clip0_253_1138)">
<path d="M8.53705 0.0876694V1.71509C8.53705 1.71509 10.8435 1.71509 11.0172 1.71509C11.0172 1.8968 11.0172 7.82151 11.0172 7.82151H12.7737C12.7737 7.82151 12.7737 1.8968 12.7737 1.71509C12.949 1.71509 15.2538 1.71509 15.2538 1.71509V0.0876694H8.53705Z" fill="white"/>
<path d="M37.4492 0.0876694H33.0261V1.72784H37.3328C37.964 1.72784 38.2111 2.01635 38.2111 2.75594C38.2111 2.75913 38.2111 2.96634 38.2111 3.0285C38.0342 3.0285 34.6423 3.0285 34.6423 3.0285C33.2859 3.0285 32.61 3.70753 32.61 5.2409V5.60592C32.61 7.18393 33.3098 7.81832 34.7156 7.81832H39.9485V2.73522C39.9485 0.787413 39.3061 0.0876694 37.4492 0.0876694ZM34.8989 6.16699C34.6327 6.16699 34.3347 6.0315 34.3347 5.36842C34.3347 4.70534 34.6295 4.58898 34.8989 4.58898C34.8989 4.58898 38.0326 4.58898 38.2095 4.58898V6.16699C38.0342 6.16699 34.8989 6.16699 34.8989 6.16699Z" fill="white"/>
<path d="M52.0336 0.0876694H47.6105V1.72784H51.9157C52.5485 1.72784 52.7939 2.01635 52.7939 2.75594C52.7939 2.75913 52.7939 2.96634 52.7939 3.0285C52.617 3.0285 49.2251 3.0285 49.2251 3.0285C47.8687 3.0285 47.1929 3.70753 47.1929 5.2409V5.60592C47.1929 7.18393 47.8926 7.81832 49.2984 7.81832H54.5313V2.73681C54.5345 0.789007 53.8905 0.0876694 52.0336 0.0876694ZM49.4833 6.16699C49.2172 6.16699 48.9191 6.0315 48.9191 5.36842C48.9191 4.70374 49.214 4.58898 49.4833 4.58898C49.4833 4.58898 52.617 4.58898 52.7939 4.58898V6.16699C52.6186 6.16699 49.4833 6.16699 49.4833 6.16699Z" fill="white"/>
<path d="M15.8133 0.0876694V1.71509C15.8133 1.71509 18.1197 1.71509 18.2934 1.71509C18.2934 1.8968 18.2934 7.82151 18.2934 7.82151H20.0515C20.0515 7.82151 20.0515 1.8968 20.0515 1.71509C20.2269 1.71509 22.5333 1.71509 22.5333 1.71509V0.0876694H15.8133Z" fill="white"/>
<path d="M40.3024 0.0876694V1.71509C40.3024 1.71509 42.6088 1.71509 42.7825 1.71509C42.7825 1.8968 42.7825 7.82151 42.7825 7.82151H44.5406C44.5406 7.82151 44.5406 1.8968 44.5406 1.71509C44.7143 1.71509 47.0208 1.71509 47.0208 1.71509V0.0876694H40.3024Z" fill="white"/>
<path d="M31.9295 5.1102V2.79579C31.9295 0.769879 31.1437 0.0860748 29.3712 0.0860748H24.6675V7.81672H29.4525C31.3349 7.81832 31.9295 6.88267 31.9295 5.1102ZM30.1347 5.14367C30.1347 5.88486 29.8845 6.17177 29.2533 6.17177C29.2533 6.17177 26.5994 6.17177 26.424 6.17177V1.73262C26.5994 1.73262 29.2533 1.73262 29.2533 1.73262C29.8845 1.73262 30.1347 2.02113 30.1347 2.76231C30.1347 2.7655 30.1347 5.14367 30.1347 5.14367Z" fill="white"/>
<path d="M6.05849 5.97731C6.02183 5.90558 3.67398 1.33254 3.38707 0.881453C3.05713 0.361826 2.65387 0 1.88081 0C1.16355 0 0.315582 0.31879 0.315582 2.04025V7.8215H2.04818C2.04818 7.8215 2.04818 3.3457 2.04818 2.99981C2.04818 2.65392 2.02586 2.14067 2.02267 2.03707C2.01949 1.95259 2.02267 1.8713 2.06571 1.84739C2.11672 1.81869 2.16613 1.86492 2.1996 1.92868C2.23307 1.99244 4.40878 6.29769 4.87102 7.02453C5.20255 7.54416 5.60581 7.90598 6.37727 7.90598C7.09454 7.90598 7.94251 7.58719 7.94251 5.86573V0.0844793H6.20991C6.20991 0.0844793 6.20991 4.56029 6.20991 4.90617C6.20991 5.25206 6.23063 5.76531 6.23541 5.86892C6.2386 5.9534 6.23541 6.03469 6.19238 6.0586C6.14297 6.08729 6.09355 6.04106 6.05849 5.97731Z" fill="white"/>
</g>
<defs>
<clipPath id="clip0_253_1138">
<rect width="54.4118" height="7.90598" fill="white"/>
</clipPath>
</defs>
</svg>
